Coordinates
version=1
nRows=84
nColumns=11
inDegrees=no

Units are S.I. units (second, meters, Newtons, ...)
If the header above contains a line with 'inDegrees', this indicates whether rotational values are in degrees (yes) or radians (no).

endheader
time	pelvis_tilt	pelvis_tx	pelvis_ty	hip_flexion_r	knee_angle_r	ankle_angle_r	hip_flexion_l	knee_angle_l	ankle_angle_l	lumbar_extension
315.01	0.0513254	0.314633	0.889293	0.360658	-0.477212	-0.0105625	-0.135849	-0.913845	0.0208099	0
315.02	0.0458937	0.314181	0.8895	0.362079	-0.496003	0.0118836	-0.0890562	-0.985988	-0.0305449	0
315.03	0.0512273	0.315864	0.891102	0.342961	-0.505986	0.0389694	-0.0660872	-1.03723	-0.0702151	0
315.04	0.0516062	0.316188	0.892317	0.331304	-0.517098	0.0631065	-0.0349253	-1.09137	-0.0822984	0
315.05	0.0505693	0.315694	0.89378	0.320477	-0.525625	0.0841048	-0.000679102	-1.14656	-0.0625026	0
315.06	0.0515342	0.315996	0.89554	0.307327	-0.531574	0.10068	0.0328128	-1.19687	-0.0357406	0
315.07	0.0784999	0.31909	0.899124	0.259853	-0.539929	0.115222	0.0276201	-1.23443	-0.0131361	0
315.08	0.081295	0.31907	0.902197	0.238041	-0.535147	0.128911	0.0533883	-1.26191	-0.00193992	0
315.09	0.0810588	0.318429	0.905139	0.219366	-0.528366	0.134899	0.0840094	-1.28586	-0.00240079	0
315.1	0.0794714	0.317281	0.908037	0.202853	-0.52146	0.136739	0.11616	-1.30399	-0.000892273	0
315.11	0.0771939	0.315882	0.911079	0.187428	-0.514693	0.143475	0.147096	-1.31395	0.00427881	0
315.12	0.051994	0.310988	0.913398	0.19451	-0.492021	0.149646	0.206599	-1.31532	0.0162353	0
315.13	0.0517141	0.3103	0.916434	0.170619	-0.472912	0.151886	0.232052	-1.31188	0.0267811	0
315.14	0.0528202	0.30996	0.919631	0.145809	-0.455167	0.152065	0.253725	-1.30149	0.0342075	0
315.15	0.0509602	0.3086	0.922495	0.125874	-0.438911	0.153913	0.278383	-1.28653	0.0401544	0
315.16	0.0478062	0.306996	0.924862	0.109006	-0.425813	0.156825	0.303723	-1.26763	0.0490926	0
315.17	0.0345794	0.303256	0.926412	0.104954	-0.411165	0.156489	0.342747	-1.24621	0.0568988	0
315.18	0.0452088	0.303795	0.92962	0.071341	-0.402677	0.158637	0.341468	-1.21023	0.0614173	0
315.19	0.0436845	0.302518	0.93181	0.0522988	-0.389442	0.156762	0.356677	-1.17144	0.0701091	0
315.2	0.0401632	0.30075	0.933384	0.0377406	-0.37952	0.156056	0.37358	-1.12919	0.0739509	0
315.21	0.0391397	0.299764	0.93499	0.0189386	-0.368358	0.154418	0.383691	-1.0812	0.0725306	0
315.22	0.0391241	0.299464	0.936539	-0.00223241	-0.355798	0.154275	0.389026	-1.02753	0.0700495	0
315.23	0.0369	0.298423	0.937559	-0.0183446	-0.346588	0.155348	0.396001	-0.970332	0.0691399	0
315.24	0.0214606	0.294893	0.937218	-0.015875	-0.338032	0.156203	0.418806	-0.908995	0.0695589	0
315.25	0.0179397	0.293384	0.937037	-0.0278377	-0.33275	0.162642	0.423146	-0.845195	0.0675819	0
315.26	0.0162686	0.292434	0.936578	-0.0439264	-0.325731	0.169687	0.42188	-0.776614	0.0665735	0
315.27	0.0268794	0.294224	0.936457	-0.0755672	-0.321587	0.178919	0.403879	-0.706735	0.0645769	0
315.28	0.0546487	0.297734	0.936753	-0.126106	-0.326914	0.187001	0.365998	-0.644453	0.0578346	0
315.29	0.011541	0.290353	0.93296	-0.093998	-0.307938	0.19202	0.412517	-0.563681	0.0553969	0
315.3	0.0215266	0.292026	0.931568	-0.12343	-0.308044	0.207522	0.389801	-0.488324	0.0548823	0
315.31	0.0104608	0.290333	0.928691	-0.128946	-0.301703	0.220782	0.391029	-0.40956	0.0555604	0
315.32	0.0218595	0.292887	0.926621	-0.164773	-0.29476	0.237593	0.362525	-0.332238	0.0572681	0
315.33	0.024477	0.294248	0.92381	-0.19125	-0.283457	0.249214	0.34454	-0.25509	0.0594084	0
315.34	0.027165	0.295489	0.920904	-0.216827	-0.274162	0.262591	0.328953	-0.185806	0.0639283	0
315.35	0.0302087	0.296934	0.917926	-0.242166	-0.267697	0.275649	0.316258	-0.127325	0.0699044	0
315.36	0.0326079	0.298351	0.91479	-0.266044	-0.262107	0.286132	0.307332	-0.0809759	0.0782247	0
315.37	0.0333413	0.299556	0.911322	-0.287498	-0.256526	0.296314	0.305268	-0.0498956	0.0850054	0
315.38	0.0342249	0.300712	0.907937	-0.310225	-0.248989	0.303535	0.305129	-0.0293103	0.0930326	0
315.39	0.0354895	0.30208	0.904809	-0.331754	-0.244464	0.306716	0.303657	-0.0132081	0.095825	0
315.4	0.0373448	0.303678	0.901861	-0.352759	-0.24301	0.307625	0.304383	-0.0117987	0.101851	0
315.41	0.0394032	0.305493	0.89872	-0.370846	-0.2486	0.310861	0.30791	-0.0269551	0.111444	0
315.42	0.0395445	0.307208	0.895793	-0.384119	-0.258629	0.312194	0.313728	-0.0505328	0.113251	0
315.43	0.0393344	0.308936	0.893185	-0.394579	-0.272374	0.310308	0.31748	-0.0753697	0.104201	0
315.44	0.0402077	0.310805	0.89094	-0.404924	-0.288062	0.304518	0.320512	-0.104046	0.0823398	0
315.45	0.0413851	0.312823	0.888922	-0.412889	-0.308445	0.291187	0.322488	-0.131112	0.0516093	0
315.46	0.0668468	0.318764	0.888241	-0.443508	-0.344113	0.273593	0.29628	-0.161708	0.0131577	0
315.47	0.0451426	0.318246	0.885748	-0.417857	-0.371797	0.24551	0.319997	-0.172923	-0.0377837	0
315.48	0.0475812	0.320655	0.884734	-0.409617	-0.42041	0.216136	0.320222	-0.198563	-0.0852652	0
315.49	0.0495428	0.322744	0.884297	-0.393248	-0.478194	0.174945	0.32684	-0.23752	-0.11408	0
315.5	0.0513024	0.324494	0.884639	-0.370656	-0.54256	0.129046	0.334693	-0.281748	-0.111006	0
315.51	0.0702164	0.328062	0.885912	-0.356442	-0.628108	0.0864158	0.323512	-0.333744	-0.0872168	0
315.52	0.0473021	0.325498	0.88597	-0.295076	-0.700516	0.0469778	0.352061	-0.363986	-0.0627163	0
315.53	0.0448772	0.325492	0.886647	-0.251597	-0.784272	0.00960147	0.355103	-0.393782	-0.042911	0
315.54	0.0423011	0.325348	0.887486	-0.20596	-0.865451	-0.0351321	0.354329	-0.416283	-0.0228464	0
315.55	0.0390266	0.325333	0.888492	-0.159006	-0.940656	-0.0771457	0.352212	-0.434784	-0.00253869	0
315.56	0.0375519	0.325259	0.890206	-0.117147	-1.00857	-0.0973834	0.343733	-0.445855	0.0187652	0
315.57	0.0368683	0.324932	0.892479	-0.0760669	-1.07522	-0.0830767	0.330431	-0.449058	0.0358938	0
315.58	0.0364647	0.324307	0.895301	-0.036956	-1.13184	-0.0558164	0.313011	-0.44443	0.0479091	0
315.59	0.0582192	0.326615	0.899167	-0.0259305	-1.18202	-0.0279234	0.270347	-0.446567	0.0560262	0
315.6	0.0579173	0.326031	0.902693	0.0130044	-1.2237	-0.0007907	0.249942	-0.436386	0.0659439	0
315.61	0.0559115	0.325041	0.906249	0.0545323	-1.25997	0.0217712	0.23137	-0.425315	0.073022	0
315.62	0.0537446	0.32385	0.909991	0.094679	-1.28725	0.0400855	0.212875	-0.413528	0.0764457	0
315.63	0.0529759	0.322796	0.913627	0.130927	-1.3065	0.0576642	0.192742	-0.402035	0.0797612	0
315.64	0.0510498	0.321502	0.916894	0.168004	-1.32001	0.0740267	0.172157	-0.386252	0.0809527	0
315.65	0.0451087	0.319362	0.919639	0.210359	-1.32985	0.0893523	0.156916	-0.369765	0.0832681	0
315.66	0.0244289	0.315241	0.921869	0.270181	-1.32926	0.108245	0.156765	-0.343126	0.085944	0
315.67	0.0402854	0.316016	0.925309	0.279959	-1.32672	0.120975	0.116498	-0.335187	0.0887319	0
315.68	0.0165669	0.311179	0.92676	0.34102	-1.31492	0.135279	0.12163	-0.310792	0.0915306	0
315.69	0.0137674	0.30931	0.928782	0.371806	-1.29747	0.142645	0.103716	-0.295037	0.0932817	0
315.7	0.00981148	0.30714	0.929931	0.402723	-1.27701	0.150911	0.0896203	-0.284301	0.100114	0
315.71	0.00308013	0.304475	0.930366	0.436244	-1.2532	0.158329	0.07824	-0.27419	0.108176	0
315.72	-0.0122554	0.300513	0.930106	0.47918	-1.22337	0.164162	0.0764836	-0.258694	0.115579	0
315.73	-0.00289424	0.300945	0.93139	0.480231	-1.17988	0.164795	0.0431344	-0.247288	0.130668	0
315.74	-0.00610271	0.299362	0.93142	0.497677	-1.13295	0.16755	0.0255958	-0.233057	0.140701	0
315.75	-0.00924767	0.298093	0.931369	0.510805	-1.07896	0.168602	0.00874587	-0.221227	0.14661	0
315.76	-0.0102374	0.297489	0.931329	0.516536	-1.01627	0.169648	-0.0107289	-0.210695	0.155213	0
315.77	-0.0113299	0.296385	0.93074	0.519817	-0.948505	0.168576	-0.027719	-0.203778	0.166485	0
315.78	-0.0147601	0.294577	0.929453	0.523828	-0.87629	0.155627	-0.0386866	-0.202416	0.178084	0
315.79	-0.0181278	0.293542	0.928045	0.523386	-0.797029	0.136076	-0.0494218	-0.202013	0.192407	0
315.8	-0.0326615	0.290817	0.925767	0.53437	-0.713275	0.114801	-0.0468556	-0.19958	0.205633	0
315.81	-0.0340748	0.290304	0.924134	0.523826	-0.624797	0.0928791	-0.0596052	-0.20182	0.223284	0
315.82	-0.0336743	0.29035	0.922197	0.507745	-0.533197	0.0812899	-0.0755802	-0.202267	0.238333	0
315.83	-0.032251	0.291009	0.919917	0.48881	-0.442584	0.0781239	-0.09186	-0.206521	0.255813	0
315.84	-0.0294643	0.292444	0.917577	0.467183	-0.35575	0.0852446	-0.112064	-0.208318	0.275826	0
